<?xml version="1.0" standalone="no"?>
<!DOCTYPE svg PUBLIC "-//W3C//DTD SVG 20010904//EN"
 "http://www.w3.org/TR/2001/REC-SVG-20010904/DTD/svg10.dtd">
<svg version="1.0" xmlns="http://www.w3.org/2000/svg"
 width="1030.000000pt" height="1006.000000pt" viewBox="0 0 1030.000000 1006.000000"
 preserveAspectRatio="xMidYMid meet">
<metadata>
Created by potrace 1.15, written by Peter Selinger 2001-2017
</metadata>
<g transform="translate(0.000000,1006.000000) scale(0.100000,-0.100000)" fill="#000000"
stroke="none">
<path d="M2885 7220 l-2280 -2280 2293 -2293 2292 -2292 2280 2280 2280 2280
-2293 2293 -2292 2292 -2280 -2280z m4495 -95 l2205 -2205 -2200 -2200 -2200
-2200 -2207 2207 -2208 2208 2197 2197 c1209 1209 2200 2198 2203 2198 3 0
997 -992 2210 -2205z"/>
<path d="M5165 9000 l-28 -29 -9 -368 c-10 -413 -3 -7598 7 -7681 6 -42 12
-56 37 -73 l30 -22 26 20 c20 14 29 34 36 69 12 68 19 7504 7 7812 l-9 244
-28 29 c-15 16 -31 29 -34 29 -3 0 -19 -13 -35 -30z"/>
<path d="M2578 6330 c-59 -39 -99 -92 -114 -149 -9 -35 -9 -192 -1 -646 7
-452 6 -677 -3 -910 -7 -170 -14 -419 -17 -551 -5 -238 -5 -243 18 -288 26
-54 65 -81 128 -90 24 -4 56 -15 70 -25 31 -21 175 -79 228 -92 165 -39 194
-43 343 -43 190 0 309 16 462 60 140 40 207 72 313 151 374 278 551 788 435
1245 -111 433 -533 852 -1081 1073 -79 32 -245 105 -369 163 -325 151 -334
154 -412 102z m398 -491 c285 -127 539 -257 650 -330 137 -91 320 -271 380
-374 151 -259 164 -544 38 -809 -149 -314 -387 -446 -806 -446 -176 0 -272 20
-382 78 l-68 37 8 320 c5 176 9 607 8 958 -1 350 2 637 6 637 4 0 79 -32 166
-71z"/>
<path d="M7145 6005 c-189 -27 -297 -67 -470 -173 -174 -107 -298 -231 -365
-364 -49 -99 -64 -170 -57 -281 4 -76 10 -99 41 -162 91 -184 308 -287 671
-320 191 -17 250 -27 347 -55 314 -93 449 -287 371 -532 -67 -215 -400 -388
-744 -388 -158 0 -284 22 -381 67 -82 38 -118 70 -197 177 -68 92 -102 116
-163 116 -86 0 -156 -52 -172 -126 -8 -38 16 -148 44 -204 98 -192 486 -351
856 -350 552 1 1017 289 1109 685 8 38 15 113 15 174 0 197 -61 342 -204 485
-148 148 -329 219 -623 246 -202 18 -302 29 -351 41 -62 15 -183 72 -206 98
-51 56 -53 157 -4 255 54 107 169 196 322 247 172 59 317 62 571 13 280 -53
365 -27 365 115 0 42 -5 54 -31 81 -67 66 -224 119 -460 155 -119 17 -160 17
-284 0z"/>
</g>
</svg>
